<mxfile host="Electron" agent="Mozilla/5.0 (Macintosh; Intel Mac OS X 10_15_7) AppleWebKit/537.36 (KHTML, like Gecko) draw.io/26.0.9 Chrome/128.0.6613.186 Electron/32.2.5 Safari/537.36" version="26.0.9">
  <diagram name="第 1 页" id="z5sSIgfVS1UyuvdZKJy9">
    <mxGraphModel dx="984" dy="747" grid="0" gridSize="10" guides="1" tooltips="1" connect="1" arrows="1" fold="1" page="1" pageScale="1" pageWidth="827" pageHeight="1169" math="0" shadow="0">
      <root>
        <mxCell id="0" />
        <mxCell id="1" parent="0" />
        <mxCell id="6tWxexwxx1LRZb1tt2kd-5" value="Player 1" style="shape=umlActor;verticalLabelPosition=bottom;verticalAlign=top;html=1;" parent="1" vertex="1">
          <mxGeometry x="60" y="470" width="30" height="60" as="geometry" />
        </mxCell>
        <mxCell id="6tWxexwxx1LRZb1tt2kd-8" value="Player 2" style="shape=umlActor;verticalLabelPosition=bottom;verticalAlign=top;html=1;" parent="1" vertex="1">
          <mxGeometry x="60" y="610" width="30" height="60" as="geometry" />
        </mxCell>
        <mxCell id="6tWxexwxx1LRZb1tt2kd-9" value="start game" style="ellipse;whiteSpace=wrap;html=1;verticalAlign=top;" parent="1" vertex="1">
          <mxGeometry x="170" y="450" width="110" height="30" as="geometry" />
        </mxCell>
        <mxCell id="6tWxexwxx1LRZb1tt2kd-11" value="" style="endArrow=none;html=1;rounded=0;entryX=0;entryY=1;entryDx=0;entryDy=0;" parent="1" target="6tWxexwxx1LRZb1tt2kd-9" edge="1">
          <mxGeometry width="50" height="50" relative="1" as="geometry">
            <mxPoint x="100" y="510" as="sourcePoint" />
            <mxPoint x="320" y="540" as="targetPoint" />
          </mxGeometry>
        </mxCell>
        <mxCell id="6tWxexwxx1LRZb1tt2kd-12" value="view rank" style="ellipse;whiteSpace=wrap;html=1;verticalAlign=top;" parent="1" vertex="1">
          <mxGeometry x="160" y="570" width="110" height="30" as="geometry" />
        </mxCell>
        <mxCell id="6tWxexwxx1LRZb1tt2kd-13" value="" style="endArrow=none;html=1;rounded=0;" parent="1" target="6tWxexwxx1LRZb1tt2kd-12" edge="1">
          <mxGeometry width="50" height="50" relative="1" as="geometry">
            <mxPoint x="99.99000000000001" y="510" as="sourcePoint" />
            <mxPoint x="239" y="574" as="targetPoint" />
          </mxGeometry>
        </mxCell>
        <mxCell id="6tWxexwxx1LRZb1tt2kd-14" value="" style="endArrow=none;html=1;rounded=0;entryX=0.4;entryY=0.967;entryDx=0;entryDy=0;entryPerimeter=0;" parent="1" target="6tWxexwxx1LRZb1tt2kd-12" edge="1">
          <mxGeometry width="50" height="50" relative="1" as="geometry">
            <mxPoint x="100" y="660" as="sourcePoint" />
            <mxPoint x="180" y="620" as="targetPoint" />
          </mxGeometry>
        </mxCell>
        <mxCell id="6tWxexwxx1LRZb1tt2kd-15" value="select mode" style="ellipse;whiteSpace=wrap;html=1;verticalAlign=top;" parent="1" vertex="1">
          <mxGeometry x="340" y="390" width="110" height="30" as="geometry" />
        </mxCell>
        <mxCell id="6tWxexwxx1LRZb1tt2kd-19" value="single" style="ellipse;whiteSpace=wrap;html=1;verticalAlign=top;" parent="1" vertex="1">
          <mxGeometry x="370" y="480" width="70" height="30" as="geometry" />
        </mxCell>
        <mxCell id="6tWxexwxx1LRZb1tt2kd-21" value="two player" style="ellipse;whiteSpace=wrap;html=1;verticalAlign=top;" parent="1" vertex="1">
          <mxGeometry x="410" y="330" width="90" height="30" as="geometry" />
        </mxCell>
        <mxCell id="6tWxexwxx1LRZb1tt2kd-36" value="" style="shape=flexArrow;endArrow=classic;html=1;rounded=0;width=0.1923076923076923;endSize=3.475;endWidth=7.0017533606078315;strokeWidth=1;exitX=0.616;exitY=0.029;exitDx=0;exitDy=0;exitPerimeter=0;entryX=0.336;entryY=0.957;entryDx=0;entryDy=0;entryPerimeter=0;" parent="1" source="6tWxexwxx1LRZb1tt2kd-19" target="6tWxexwxx1LRZb1tt2kd-15" edge="1">
          <mxGeometry width="50" height="50" relative="1" as="geometry">
            <mxPoint x="430" y="470" as="sourcePoint" />
            <mxPoint x="490" y="420" as="targetPoint" />
          </mxGeometry>
        </mxCell>
        <mxCell id="6tWxexwxx1LRZb1tt2kd-37" value="" style="shape=flexArrow;endArrow=classic;html=1;rounded=0;width=0.1923076923076923;endSize=3.475;endWidth=7.0017533606078315;strokeWidth=1;exitX=0.054;exitY=0.713;exitDx=0;exitDy=0;exitPerimeter=0;entryX=0.5;entryY=0;entryDx=0;entryDy=0;" parent="1" source="6tWxexwxx1LRZb1tt2kd-21" target="6tWxexwxx1LRZb1tt2kd-15" edge="1">
          <mxGeometry width="50" height="50" relative="1" as="geometry">
            <mxPoint x="550" y="450" as="sourcePoint" />
            <mxPoint x="500" y="420" as="targetPoint" />
          </mxGeometry>
        </mxCell>
        <mxCell id="6tWxexwxx1LRZb1tt2kd-42" value="input username" style="ellipse;whiteSpace=wrap;html=1;verticalAlign=top;" parent="1" vertex="1">
          <mxGeometry x="324" y="560" width="100" height="30" as="geometry" />
        </mxCell>
        <mxCell id="6tWxexwxx1LRZb1tt2kd-46" value="boss fight" style="ellipse;whiteSpace=wrap;html=1;verticalAlign=top;" parent="1" vertex="1">
          <mxGeometry x="560" y="450" width="100" height="30" as="geometry" />
        </mxCell>
        <mxCell id="6tWxexwxx1LRZb1tt2kd-48" value="update weapons" style="ellipse;whiteSpace=wrap;html=1;verticalAlign=top;" parent="1" vertex="1">
          <mxGeometry x="560" y="500" width="100" height="30" as="geometry" />
        </mxCell>
        <mxCell id="6tWxexwxx1LRZb1tt2kd-49" value="&amp;lt;&amp;lt;extends&amp;gt;&amp;gt;" style="html=1;verticalAlign=bottom;endArrow=block;curved=0;rounded=0;entryX=1;entryY=0.5;entryDx=0;entryDy=0;exitX=0.054;exitY=0.713;exitDx=0;exitDy=0;exitPerimeter=0;dashed=1;" parent="1" source="6tWxexwxx1LRZb1tt2kd-46" target="6tWxexwxx1LRZb1tt2kd-19" edge="1">
          <mxGeometry width="80" relative="1" as="geometry">
            <mxPoint x="370" y="510" as="sourcePoint" />
            <mxPoint x="450" y="510" as="targetPoint" />
          </mxGeometry>
        </mxCell>
        <mxCell id="6tWxexwxx1LRZb1tt2kd-50" value="&amp;lt;&amp;lt;extends&amp;gt;&amp;gt;" style="html=1;verticalAlign=bottom;endArrow=block;curved=0;rounded=0;exitX=0.006;exitY=0.713;exitDx=0;exitDy=0;exitPerimeter=0;dashed=1;" parent="1" source="6tWxexwxx1LRZb1tt2kd-48" target="6tWxexwxx1LRZb1tt2kd-19" edge="1">
          <mxGeometry width="80" relative="1" as="geometry">
            <mxPoint x="555" y="481" as="sourcePoint" />
            <mxPoint x="450" y="505" as="targetPoint" />
          </mxGeometry>
        </mxCell>
        <mxCell id="6tWxexwxx1LRZb1tt2kd-52" value="view history scores" style="ellipse;whiteSpace=wrap;html=1;verticalAlign=top;" parent="1" vertex="1">
          <mxGeometry x="294" y="640" width="130" height="30" as="geometry" />
        </mxCell>
        <mxCell id="6tWxexwxx1LRZb1tt2kd-53" value="&amp;lt;&amp;lt;extends&amp;gt;&amp;gt;" style="html=1;verticalAlign=bottom;endArrow=block;curved=0;rounded=0;exitX=0.225;exitY=0.078;exitDx=0;exitDy=0;exitPerimeter=0;dashed=1;" parent="1" source="6tWxexwxx1LRZb1tt2kd-52" edge="1">
          <mxGeometry width="80" relative="1" as="geometry">
            <mxPoint x="350.5" y="655" as="sourcePoint" />
            <mxPoint x="237.5" y="600" as="targetPoint" />
          </mxGeometry>
        </mxCell>
        <mxCell id="6tWxexwxx1LRZb1tt2kd-54" value="&amp;lt;&amp;lt;include&amp;gt;&amp;gt;" style="html=1;verticalAlign=bottom;endArrow=block;curved=0;rounded=0;entryX=0.378;entryY=0.022;entryDx=0;entryDy=0;exitX=0.054;exitY=0.713;exitDx=0;exitDy=0;exitPerimeter=0;dashed=1;entryPerimeter=0;" parent="1" target="6tWxexwxx1LRZb1tt2kd-42" edge="1">
          <mxGeometry width="80" relative="1" as="geometry">
            <mxPoint x="411.5" y="510" as="sourcePoint" />
            <mxPoint x="306.5" y="534" as="targetPoint" />
          </mxGeometry>
        </mxCell>
        <mxCell id="6tWxexwxx1LRZb1tt2kd-55" value="&amp;lt;&amp;lt;include&amp;gt;&amp;gt;" style="html=1;verticalAlign=bottom;endArrow=block;curved=0;rounded=0;entryX=0;entryY=1;entryDx=0;entryDy=0;exitX=1;exitY=0.5;exitDx=0;exitDy=0;dashed=1;" parent="1" source="6tWxexwxx1LRZb1tt2kd-9" target="6tWxexwxx1LRZb1tt2kd-15" edge="1">
          <mxGeometry width="80" relative="1" as="geometry">
            <mxPoint x="277.77189937176854" y="473.7565226768347" as="sourcePoint" />
            <mxPoint x="310" y="516" as="targetPoint" />
          </mxGeometry>
        </mxCell>
        <mxCell id="6tWxexwxx1LRZb1tt2kd-56" value="loss health" style="ellipse;whiteSpace=wrap;html=1;verticalAlign=top;" parent="1" vertex="1">
          <mxGeometry x="555" y="550" width="100" height="30" as="geometry" />
        </mxCell>
        <mxCell id="6tWxexwxx1LRZb1tt2kd-57" value="change background" style="ellipse;whiteSpace=wrap;html=1;verticalAlign=top;" parent="1" vertex="1">
          <mxGeometry x="540" y="605" width="130" height="30" as="geometry" />
        </mxCell>
        <mxCell id="6tWxexwxx1LRZb1tt2kd-59" value="&amp;lt;&amp;lt;extends&amp;gt;&amp;gt;" style="html=1;verticalAlign=bottom;endArrow=block;curved=0;rounded=0;exitX=0;exitY=0.5;exitDx=0;exitDy=0;dashed=1;entryX=1;entryY=1;entryDx=0;entryDy=0;" parent="1" source="6tWxexwxx1LRZb1tt2kd-56" target="6tWxexwxx1LRZb1tt2kd-19" edge="1">
          <mxGeometry width="80" relative="1" as="geometry">
            <mxPoint x="561" y="541" as="sourcePoint" />
            <mxPoint x="445" y="513" as="targetPoint" />
          </mxGeometry>
        </mxCell>
        <mxCell id="6tWxexwxx1LRZb1tt2kd-60" value="&amp;lt;&amp;lt;extends&amp;gt;&amp;gt;" style="html=1;verticalAlign=bottom;endArrow=block;curved=0;rounded=0;exitX=0;exitY=0.5;exitDx=0;exitDy=0;dashed=1;entryX=1;entryY=1;entryDx=0;entryDy=0;" parent="1" target="6tWxexwxx1LRZb1tt2kd-19" edge="1">
          <mxGeometry width="80" relative="1" as="geometry">
            <mxPoint x="540" y="620" as="sourcePoint" />
            <mxPoint x="420" y="550" as="targetPoint" />
          </mxGeometry>
        </mxCell>
        <mxCell id="6tWxexwxx1LRZb1tt2kd-62" value="&amp;lt;&amp;lt;include&amp;gt;&amp;gt;" style="html=1;verticalAlign=bottom;endArrow=block;curved=0;rounded=0;entryX=0;entryY=0.5;entryDx=0;entryDy=0;exitX=1;exitY=0.5;exitDx=0;exitDy=0;dashed=1;" parent="1" source="6tWxexwxx1LRZb1tt2kd-21" target="6tWxexwxx1LRZb1tt2kd-63" edge="1">
          <mxGeometry width="80" relative="1" as="geometry">
            <mxPoint x="510" y="330" as="sourcePoint" />
            <mxPoint x="590" y="380" as="targetPoint" />
          </mxGeometry>
        </mxCell>
        <mxCell id="6tWxexwxx1LRZb1tt2kd-63" value="cooperative attach" style="ellipse;whiteSpace=wrap;html=1;verticalAlign=top;" parent="1" vertex="1">
          <mxGeometry x="560" y="340" width="120" height="30" as="geometry" />
        </mxCell>
        <mxCell id="6tWxexwxx1LRZb1tt2kd-64" value="pause game" style="ellipse;whiteSpace=wrap;html=1;verticalAlign=top;" parent="1" vertex="1">
          <mxGeometry x="560" y="390" width="100" height="30" as="geometry" />
        </mxCell>
        <mxCell id="6tWxexwxx1LRZb1tt2kd-65" value="&amp;lt;&amp;lt;extends&amp;gt;&amp;gt;" style="html=1;verticalAlign=bottom;endArrow=block;curved=0;rounded=0;exitX=0;exitY=0.5;exitDx=0;exitDy=0;dashed=1;entryX=0.679;entryY=1;entryDx=0;entryDy=0;entryPerimeter=0;" parent="1" source="6tWxexwxx1LRZb1tt2kd-64" target="6tWxexwxx1LRZb1tt2kd-21" edge="1">
          <mxGeometry width="80" relative="1" as="geometry">
            <mxPoint x="555" y="481" as="sourcePoint" />
            <mxPoint x="478" y="350" as="targetPoint" />
          </mxGeometry>
        </mxCell>
        <mxCell id="6tWxexwxx1LRZb1tt2kd-66" value="&amp;lt;&amp;lt;extends&amp;gt;&amp;gt;" style="html=1;verticalAlign=bottom;endArrow=block;curved=0;rounded=0;entryX=1;entryY=0;entryDx=0;entryDy=0;exitX=0.054;exitY=0.824;exitDx=0;exitDy=0;dashed=1;exitPerimeter=0;" parent="1" source="6tWxexwxx1LRZb1tt2kd-64" target="6tWxexwxx1LRZb1tt2kd-19" edge="1">
          <mxGeometry width="80" relative="1" as="geometry">
            <mxPoint x="570" y="415" as="sourcePoint" />
            <mxPoint x="488" y="370" as="targetPoint" />
          </mxGeometry>
        </mxCell>
        <mxCell id="6tWxexwxx1LRZb1tt2kd-67" value="instruction" style="ellipse;whiteSpace=wrap;html=1;verticalAlign=top;" parent="1" vertex="1">
          <mxGeometry x="260" y="320" width="100" height="30" as="geometry" />
        </mxCell>
        <mxCell id="6tWxexwxx1LRZb1tt2kd-68" value="&amp;lt;&amp;lt;extends&amp;gt;&amp;gt;" style="html=1;verticalAlign=bottom;endArrow=block;curved=0;rounded=0;exitX=0.378;exitY=1.03;exitDx=0;exitDy=0;exitPerimeter=0;dashed=1;entryX=0.5;entryY=0;entryDx=0;entryDy=0;" parent="1" source="6tWxexwxx1LRZb1tt2kd-67" target="6tWxexwxx1LRZb1tt2kd-9" edge="1">
          <mxGeometry width="80" relative="1" as="geometry">
            <mxPoint x="315.5" y="480" as="sourcePoint" />
            <mxPoint x="230" y="438" as="targetPoint" />
          </mxGeometry>
        </mxCell>
        <mxCell id="6tWxexwxx1LRZb1tt2kd-69" value="adjust position" style="ellipse;whiteSpace=wrap;html=1;verticalAlign=top;" parent="1" vertex="1">
          <mxGeometry x="540" y="660" width="130" height="30" as="geometry" />
        </mxCell>
        <mxCell id="6tWxexwxx1LRZb1tt2kd-70" value="&amp;lt;&amp;lt;extends&amp;gt;&amp;gt;" style="html=1;verticalAlign=bottom;endArrow=block;curved=0;rounded=0;exitX=0;exitY=0.5;exitDx=0;exitDy=0;dashed=1;entryX=1;entryY=1;entryDx=0;entryDy=0;" parent="1" source="6tWxexwxx1LRZb1tt2kd-69" edge="1">
          <mxGeometry width="80" relative="1" as="geometry">
            <mxPoint x="530" y="622.5" as="sourcePoint" />
            <mxPoint x="420" y="507.5" as="targetPoint" />
          </mxGeometry>
        </mxCell>
        <mxCell id="6tWxexwxx1LRZb1tt2kd-73" value="&amp;lt;&amp;lt;include&amp;gt;&amp;gt;" style="html=1;verticalAlign=bottom;endArrow=block;curved=0;rounded=0;exitX=1;exitY=0.5;exitDx=0;exitDy=0;dashed=1;entryX=0.349;entryY=0;entryDx=0;entryDy=0;entryPerimeter=0;" parent="1" source="6tWxexwxx1LRZb1tt2kd-46" target="6tWxexwxx1LRZb1tt2kd-74" edge="1">
          <mxGeometry width="80" relative="1" as="geometry">
            <mxPoint x="660" y="470" as="sourcePoint" />
            <mxPoint x="730" y="470" as="targetPoint" />
          </mxGeometry>
        </mxCell>
        <mxCell id="6tWxexwxx1LRZb1tt2kd-74" value="win previous levels" style="ellipse;whiteSpace=wrap;html=1;verticalAlign=top;" parent="1" vertex="1">
          <mxGeometry x="680" y="500" width="120" height="30" as="geometry" />
        </mxCell>
      </root>
    </mxGraphModel>
  </diagram>
</mxfile>
